<svg width="20" height="20" viewBox="0 0 20 20" fill="none" xmlns="http://www.w3.org/2000/svg">
<path d="M14.9999 8.33333L11.6666 5M2.08325 17.9167L4.90356 17.6033C5.24813 17.565 5.42042 17.5459 5.58146 17.4937C5.72433 17.4475 5.86029 17.3821 5.98566 17.2995C6.12696 17.2063 6.24954 17.0837 6.49469 16.8386L17.4999 5.83333C18.4204 4.91286 18.4204 3.42047 17.4999 2.5C16.5795 1.57952 15.0871 1.57952 14.1666 2.49999L3.16136 13.5052C2.91621 13.7504 2.79363 13.873 2.70045 14.0143C2.61778 14.1396 2.55243 14.2756 2.50618 14.4185C2.45405 14.5795 2.43491 14.7518 2.39662 15.0964L2.08325 17.9167Z" stroke="#F0F0F0" stroke-opacity="0.5" stroke-width="1.5" stroke-linecap="round" stroke-linejoin="round"/>
</svg>
